<svg xmlns="http://www.w3.org/2000/svg" viewBox="0 0 120 200" aria-label="Quetzal">
  <!-- Plumas de la cola (largas y fluidas) -->
  <path d="M55 100 Q 50 135 42 170 Q 48 175 45 185 Q 53 155 57 105 Z" fill="#059669"/>
  <path d="M62 100 Q 64 140 60 175 Q 64 180 62 190 Q 68 155 64 105 Z" fill="#22c55e"/>
  <path d="M68 95 Q 78 140 82 175 Q 80 183 78 188 Q 74 150 65 100 Z" fill="#4ade80"/>
  <!-- Pata -->
  <path d="M48 85 L 46 94 M 55 85 L 57 94" stroke="#a16207" stroke-width="2" stroke-linecap="round" fill="none"/>
  <!-- Pecho rojo -->
  <ellipse cx="52" cy="72" rx="15" ry="18" fill="#dc2626"/>
  <!-- Cabeza y cuerpo verde -->
  <ellipse cx="48" cy="48" rx="22" ry="18" fill="#22c55e"/>
  <!-- Ala (vuela hacia arriba) -->
  <path d="M58 38 Q 90 18 112 42 Q 100 52 80 54 L 64 52 Z" fill="#16a34a"/>
  <path d="M66 42 L 95 32 L 108 44" stroke="#166534" stroke-width="0.8" fill="none" opacity="0.6"/>
  <path d="M72 48 L 98 40 L 110 48" stroke="#166534" stroke-width="0.8" fill="none" opacity="0.6"/>
  <!-- Cresta tipo punk -->
  <path d="M30 28 L 27 15 L 34 24 L 37 12 L 41 24 L 45 10 L 49 24 L 53 12 L 56 24 L 62 15 L 59 30 Z" fill="#16a34a"/>
  <!-- Pico -->
  <polygon points="25,46 13,49 25,53" fill="#f59e0b"/>
  <!-- Ojo -->
  <circle cx="34" cy="42" r="2.5" fill="#111827"/>
  <circle cx="34.7" cy="41.3" r="0.8" fill="#fff"/>
  <!-- Mejilla -->
  <circle cx="32" cy="50" r="3" fill="#fda4af" opacity="0.7"/>
</svg>
